<svg width="196.533" height="76.368" viewBox="0 0 196.533 76.368" xmlns="http://www.w3.org/2000/svg"><g id="svgGroup" stroke-linecap="round" fill-rule="evenodd" font-size="9pt" stroke="#ffffff" stroke-width="0.25mm" fill="#ffffff" style="stroke:#ffffff;stroke-width:0.25mm;fill:#ffffff"><path d="M 56.006 5.371 L 56.006 75.391 L 41.016 75.391 L 14.014 29.297 L 14.014 75.391 L 0 75.391 L 0 5.371 L 14.99 5.371 L 41.992 51.514 L 41.992 5.371 L 56.006 5.371 Z M 155.811 75.391 L 142.432 75.391 L 122.51 23.096 L 137.695 23.096 L 149.121 55.713 L 160.498 23.096 L 175.732 23.096 L 155.811 75.391 Z M 117.432 23.194 L 117.432 75.391 L 114.209 75.391 L 109.033 68.213 A 42.887 42.887 0 0 1 105.005 71.411 Q 102.881 72.901 100.537 73.999 A 27.411 27.411 0 0 1 95.728 75.733 Q 93.262 76.367 90.723 76.367 A 29.128 29.128 0 0 1 81.572 74.947 A 27.46 27.46 0 0 1 80.347 74.512 Q 75.488 72.656 71.851 69.116 A 24.669 24.669 0 0 1 66.88 62.165 A 29.137 29.137 0 0 1 66.113 60.449 A 27.73 27.73 0 0 1 64.334 53.675 A 36.082 36.082 0 0 1 64.014 48.779 A 30.985 30.985 0 0 1 64.834 41.541 A 26.843 26.843 0 0 1 66.113 37.573 A 27.262 27.262 0 0 1 70.333 30.48 A 25.287 25.287 0 0 1 71.851 28.809 A 25.898 25.898 0 0 1 80.347 23.12 Q 85.205 21.094 90.723 21.094 Q 93.262 21.094 95.752 21.729 A 26.056 26.056 0 0 1 100.586 23.486 A 30.087 30.087 0 0 1 105.054 26.123 Q 107.178 27.637 109.033 29.395 L 114.209 23.194 L 117.432 23.194 Z M 194.238 23.096 L 194.238 75.391 L 180.811 75.391 L 180.811 23.096 L 194.238 23.096 Z M 104.004 48.779 A 13.853 13.853 0 0 0 102.954 43.482 A 15.224 15.224 0 0 0 100.098 38.941 Q 98.291 36.963 95.874 35.767 A 11.458 11.458 0 0 0 90.723 34.57 A 14.314 14.314 0 0 0 85.875 35.386 A 13.666 13.666 0 0 0 85.571 35.498 A 11.729 11.729 0 0 0 81.372 38.233 A 12.231 12.231 0 0 0 79.163 41.347 A 14.961 14.961 0 0 0 78.564 42.7 A 15.002 15.002 0 0 0 77.722 46.03 A 19.885 19.885 0 0 0 77.539 48.779 A 19.457 19.457 0 0 0 77.787 51.961 A 14.743 14.743 0 0 0 78.564 54.859 A 13.876 13.876 0 0 0 80.026 57.684 A 11.695 11.695 0 0 0 81.372 59.326 Q 83.154 61.133 85.571 62.061 A 14.207 14.207 0 0 0 90.552 62.988 A 16.032 16.032 0 0 0 90.723 62.988 Q 93.457 62.988 95.874 61.792 A 14.203 14.203 0 0 0 100.098 58.618 A 15.224 15.224 0 0 0 102.954 54.077 A 13.853 13.853 0 0 0 104.004 48.779 Z M 195.911 12.151 A 8.556 8.556 0 0 0 196.533 8.887 Q 196.533 7.08 195.825 5.445 A 8.83 8.83 0 0 0 193.896 2.612 A 9.337 9.337 0 0 0 191.04 0.708 Q 189.404 0 187.549 0 Q 185.693 0 184.058 0.708 Q 182.422 1.416 181.226 2.612 A 8.726 8.726 0 0 0 181.188 2.65 A 9.042 9.042 0 0 0 179.321 5.445 Q 178.613 7.08 178.613 8.887 Q 178.613 10.742 179.321 12.354 A 9.111 9.111 0 0 0 181.226 15.161 A 8.726 8.726 0 0 0 181.263 15.199 A 9.042 9.042 0 0 0 184.058 17.066 Q 185.693 17.774 187.549 17.774 Q 189.404 17.774 191.04 17.066 A 9.337 9.337 0 0 0 193.896 15.161 A 8.904 8.904 0 0 0 195.825 12.354 A 8.276 8.276 0 0 0 195.911 12.151 Z" vector-effect="non-scaling-stroke"/></g></svg>